<mxfile host="Electron" agent="Mozilla/5.0 (Windows NT 10.0; Win64; x64) AppleWebKit/537.36 (KHTML, like Gecko) draw.io/26.0.16 Chrome/132.0.6834.196 Electron/34.2.0 Safari/537.36" version="26.0.16">
  <diagram name="Page-1" id="uyLgyhAHT6Txw997STSm">
    <mxGraphModel dx="1276" dy="1806" grid="1" gridSize="10" guides="1" tooltips="1" connect="1" arrows="1" fold="1" page="1" pageScale="1" pageWidth="1600" pageHeight="1200" math="0" shadow="0">
      <root>
        <mxCell id="0" />
        <mxCell id="1" parent="0" />
        <mxCell id="0y1p2ZdWh8FgVktb7eQu-8" value="Chờ xác thực" style="html=1;align=center;verticalAlign=top;rounded=1;absoluteArcSize=1;arcSize=10;dashed=0;whiteSpace=wrap;" parent="1" vertex="1">
          <mxGeometry x="350" y="-560" width="140" height="40" as="geometry" />
        </mxCell>
        <mxCell id="0y1p2ZdWh8FgVktb7eQu-9" value="" style="ellipse;html=1;shape=startState;fillColor=#000000;strokeColor=#ff0000;" parent="1" vertex="1">
          <mxGeometry x="220" y="-555" width="30" height="30" as="geometry" />
        </mxCell>
        <mxCell id="0y1p2ZdWh8FgVktb7eQu-10" value="" style="edgeStyle=orthogonalEdgeStyle;html=1;verticalAlign=bottom;endArrow=open;endSize=8;strokeColor=#ff0000;rounded=0;entryX=0;entryY=0.5;entryDx=0;entryDy=0;fillColor=#000000;" parent="1" source="0y1p2ZdWh8FgVktb7eQu-9" target="0y1p2ZdWh8FgVktb7eQu-8" edge="1">
          <mxGeometry relative="1" as="geometry">
            <mxPoint x="390" y="-450" as="targetPoint" />
          </mxGeometry>
        </mxCell>
        <mxCell id="0y1p2ZdWh8FgVktb7eQu-11" value="Chờ thanh toán" style="html=1;align=center;verticalAlign=top;rounded=1;absoluteArcSize=1;arcSize=10;dashed=0;whiteSpace=wrap;" parent="1" vertex="1">
          <mxGeometry x="640" y="-560" width="140" height="40" as="geometry" />
        </mxCell>
        <mxCell id="0y1p2ZdWh8FgVktb7eQu-12" value="Đã thanh toán" style="html=1;align=center;verticalAlign=top;rounded=1;absoluteArcSize=1;arcSize=10;dashed=0;whiteSpace=wrap;" parent="1" vertex="1">
          <mxGeometry x="800" y="-480" width="140" height="40" as="geometry" />
        </mxCell>
        <mxCell id="PY2EMh2nqRlK2ooGNQdz-1" value="Hủy" style="html=1;align=center;verticalAlign=top;rounded=1;absoluteArcSize=1;arcSize=10;dashed=0;whiteSpace=wrap;" vertex="1" parent="1">
          <mxGeometry x="380" y="-400" width="140" height="40" as="geometry" />
        </mxCell>
        <mxCell id="PY2EMh2nqRlK2ooGNQdz-2" value="Đã hoàn tiền" style="html=1;align=center;verticalAlign=top;rounded=1;absoluteArcSize=1;arcSize=10;dashed=0;whiteSpace=wrap;" vertex="1" parent="1">
          <mxGeometry x="600" y="-400" width="140" height="40" as="geometry" />
        </mxCell>
        <mxCell id="PY2EMh2nqRlK2ooGNQdz-3" value="Gửi mã xác thực" style="html=1;verticalAlign=bottom;labelBackgroundColor=none;endArrow=open;endFill=0;rounded=0;exitX=1;exitY=0.75;exitDx=0;exitDy=0;entryX=0;entryY=0.75;entryDx=0;entryDy=0;" edge="1" parent="1" source="0y1p2ZdWh8FgVktb7eQu-8" target="0y1p2ZdWh8FgVktb7eQu-11">
          <mxGeometry width="160" relative="1" as="geometry">
            <mxPoint x="570" y="-430" as="sourcePoint" />
            <mxPoint x="730" y="-430" as="targetPoint" />
          </mxGeometry>
        </mxCell>
        <mxCell id="PY2EMh2nqRlK2ooGNQdz-4" value="Khởi tạo" style="text;html=1;align=center;verticalAlign=middle;resizable=0;points=[];autosize=1;strokeColor=none;fillColor=none;" vertex="1" parent="1">
          <mxGeometry x="270" y="-570" width="70" height="30" as="geometry" />
        </mxCell>
        <mxCell id="PY2EMh2nqRlK2ooGNQdz-8" value="Gửi mã OTP" style="html=1;verticalAlign=bottom;labelBackgroundColor=none;endArrow=open;endFill=0;rounded=0;exitX=1;exitY=0.75;exitDx=0;exitDy=0;entryX=0.571;entryY=0.015;entryDx=0;entryDy=0;entryPerimeter=0;" edge="1" parent="1" source="0y1p2ZdWh8FgVktb7eQu-11" target="0y1p2ZdWh8FgVktb7eQu-12">
          <mxGeometry x="-0.2032" width="160" relative="1" as="geometry">
            <mxPoint x="660" y="-460.5" as="sourcePoint" />
            <mxPoint x="810" y="-460.5" as="targetPoint" />
            <Array as="points">
              <mxPoint x="880" y="-530" />
            </Array>
            <mxPoint as="offset" />
          </mxGeometry>
        </mxCell>
        <mxCell id="PY2EMh2nqRlK2ooGNQdz-9" value="Quá hạn" style="html=1;verticalAlign=bottom;labelBackgroundColor=none;endArrow=open;endFill=0;rounded=0;exitX=0.597;exitY=1.015;exitDx=0;exitDy=0;exitPerimeter=0;entryX=0.383;entryY=0;entryDx=0;entryDy=0;entryPerimeter=0;" edge="1" parent="1">
          <mxGeometry x="0.1623" y="-29" width="160" relative="1" as="geometry">
            <mxPoint x="438.5799999999999" y="-519.4000000000001" as="sourcePoint" />
            <mxPoint x="438.6199999999999" y="-400" as="targetPoint" />
            <mxPoint as="offset" />
          </mxGeometry>
        </mxCell>
        <mxCell id="PY2EMh2nqRlK2ooGNQdz-10" value="Quá hạn" style="html=1;verticalAlign=bottom;labelBackgroundColor=none;endArrow=open;endFill=0;rounded=0;exitX=0.571;exitY=1;exitDx=0;exitDy=0;exitPerimeter=0;entryX=1;entryY=0;entryDx=0;entryDy=0;" edge="1" parent="1">
          <mxGeometry x="0.0063" width="160" relative="1" as="geometry">
            <mxPoint x="680.94" y="-520" as="sourcePoint" />
            <mxPoint x="481" y="-400" as="targetPoint" />
            <mxPoint as="offset" />
            <Array as="points">
              <mxPoint x="681" y="-480" />
              <mxPoint x="581" y="-480" />
              <mxPoint x="481" y="-480" />
              <mxPoint x="481" y="-430" />
            </Array>
          </mxGeometry>
        </mxCell>
        <mxCell id="PY2EMh2nqRlK2ooGNQdz-11" value="Hủy vé" style="html=1;verticalAlign=bottom;labelBackgroundColor=none;endArrow=open;endFill=0;rounded=0;exitX=0.583;exitY=1.035;exitDx=0;exitDy=0;entryX=1;entryY=0.75;entryDx=0;entryDy=0;exitPerimeter=0;" edge="1" parent="1" source="0y1p2ZdWh8FgVktb7eQu-12" target="PY2EMh2nqRlK2ooGNQdz-2">
          <mxGeometry x="0.2331" width="160" relative="1" as="geometry">
            <mxPoint x="790" y="-400" as="sourcePoint" />
            <mxPoint x="890" y="-349" as="targetPoint" />
            <Array as="points">
              <mxPoint x="880" y="-370" />
            </Array>
            <mxPoint as="offset" />
          </mxGeometry>
        </mxCell>
        <mxCell id="PY2EMh2nqRlK2ooGNQdz-12" value="Hóa đơn" style="shape=umlFrame;whiteSpace=wrap;html=1;pointerEvents=0;recursiveResize=0;container=1;collapsible=0;width=160;" vertex="1" parent="1">
          <mxGeometry x="200" y="-640" width="800" height="320" as="geometry" />
        </mxCell>
        <mxCell id="PY2EMh2nqRlK2ooGNQdz-13" value="" style="shape=umlFrame;whiteSpace=wrap;html=1;pointerEvents=0;recursiveResize=0;container=1;collapsible=0;width=10;height=15;" vertex="1" parent="1">
          <mxGeometry x="120" y="-720" width="960" height="480" as="geometry" />
        </mxCell>
      </root>
    </mxGraphModel>
  </diagram>
</mxfile>
